<?xml version="1.0" standalone="no"?>
<!DOCTYPE svg PUBLIC "-//W3C//DTD SVG 20010904//EN"
 "http://www.w3.org/TR/2001/REC-SVG-20010904/DTD/svg10.dtd">
<svg version="1.0" xmlns="http://www.w3.org/2000/svg"
 width="700.000000pt" height="700.000000pt" viewBox="0 0 700.000000 700.000000"
 preserveAspectRatio="xMidYMid meet">
<metadata>
Created by potrace 1.14, written by Peter Selinger 2001-2017
</metadata>
<g transform="translate(0.000000,700.000000) scale(0.100000,-0.100000)"
fill="#000000" stroke="none">
<path d="M0 3500 l0 -3500 3500 0 3500 0 0 3500 0 3500 -3500 0 -3500 0 0
-3500z m3534 1739 c3 -17 6 -59 6 -93 0 -34 7 -117 15 -186 77 -619 341 -1043
791 -1268 154 -77 375 -136 553 -148 144 -9 151 -11 151 -43 0 -34 -17 -41
-100 -41 -30 0 -100 -7 -155 -15 -640 -97 -1056 -508 -1205 -1190 -24 -112
-50 -319 -50 -401 0 -100 -8 -124 -40 -124 -34 0 -40 17 -40 115 0 161 -47
434 -105 613 -157 480 -481 803 -943 937 -103 30 -306 65 -379 65 -69 0 -83 7
-83 40 0 33 14 40 77 40 25 0 93 7 152 15 556 81 948 390 1147 906 67 175 119
428 129 634 9 168 11 175 44 175 24 0 30 -5 35 -31z"/>
</g>
</svg>
