<svg width="600" height="116" viewBox="0 0 600 116" fill="none" xmlns="http://www.w3.org/2000/svg">
<path d="M57.0356 75.3039C54.6369 87.4591 50.069 88.3481 43.3675 88.3481C40.8039 88.3481 36.2037 88.2834 33.2166 88.0539V38.5054C33.2166 27.8922 33.6433 26.6121 37.2576 25.9558L37.9138 25.8588V22.9688L37.0927 23.0011C34.9914 23.0981 29.5345 23.1983 26.0852 23.1983C22.6681 23.1983 17.2145 23.0981 15.1099 23.0011L14.2888 22.9688V25.8588L14.9451 25.9558C18.5916 26.6121 18.986 27.8955 18.986 38.5054V77.9968C18.986 88.6099 18.5916 89.8901 14.9451 90.5463L14.2888 90.6433V93.5334L15.1099 93.5011C17.1789 93.4041 22.6326 93.3039 26.0852 93.3039C37.5194 93.3039 51.7436 93.3039 58.8104 93.5011L59.6315 93.5334V92.7123C59.6315 87.5528 59.8287 81.0162 59.9257 77.1401L60.0259 74.6767H57.1358L57.0356 75.3006V75.3039Z" fill="#EF452A"/>
<path d="M374.318 22.7038C356.774 22.7038 338.638 36.1424 338.638 58.5809C338.638 81.0195 356.774 94.2609 374.318 94.2609C391.862 94.2609 409.998 80.9225 409.998 58.5809C409.998 36.2394 391.862 22.7038 374.318 22.7038V22.7038ZM374.318 89.6639C360.32 89.6639 354.081 80.0691 354.081 58.484C354.081 36.8988 360.323 27.304 374.318 27.304C388.313 27.304 394.558 36.9312 394.558 58.484C394.558 80.0368 388.316 89.6639 374.318 89.6639Z" fill="#EF452A"/>
<path d="M375.107 48.6659L375.094 47.8901H373.17L373.157 48.6659C373.093 52.6261 371.699 57.3912 365.428 57.6077L364.668 57.6336V59.5312L365.428 59.5571C371.699 59.7737 373.093 64.5388 373.157 68.4989L373.17 69.2748H375.094L375.107 68.4989C375.2 62.819 377.939 59.6412 382.823 59.5571L383.599 59.5442V57.6207L382.823 57.6077C377.939 57.5237 375.2 54.3459 375.107 48.6659Z" fill="#EF452A"/>
<path d="M450.475 60.4526C460.3 56.8384 464.9 51.1552 464.9 42.6466C464.9 30.1616 455.538 22.9978 439.206 22.9978C438.087 22.9978 436.71 23.0302 435.133 23.0625C432.931 23.1272 430.27 23.195 427.313 23.195C423.831 23.195 418.342 23.0948 416.24 22.9978L415.419 22.9655V25.8556L416.075 25.9526C419.722 26.6088 420.116 27.8922 420.116 38.5022V77.9935C420.116 88.6067 419.722 89.8869 416.075 90.5431L415.419 90.6401V93.5302L416.24 93.4978C418.342 93.4009 423.798 93.3006 427.248 93.3006C430.665 93.3006 436.119 93.4009 438.223 93.4978L439.044 93.5302V90.6401L438.42 90.5431C434.774 89.8869 434.347 88.6034 434.347 77.9935V62.8481H436.186C438.126 66.3621 439.768 69.4526 441.213 72.1778C446.602 82.2963 449.328 87.3912 452.777 90.2166C456.983 93.6983 462.074 93.6983 463.717 93.6983C468.579 93.6983 469.794 92.8772 470.024 92.6153L470.286 92.3858V90.7435L469.726 90.5787C465.883 89.2306 455.205 70.5032 450.472 60.4494L450.475 60.4526ZM437.793 58.7425H434.344V27.9601C435.032 27.6983 436.283 27.4009 438.188 27.4009C446.008 27.4009 449.654 32.5603 449.654 43.6649C449.654 54.5075 446.337 58.7457 437.793 58.7457V58.7425Z" fill="#EF452A"/>
<path d="M498.643 22.9978C496.112 22.9978 493.749 23.0302 491.447 23.0948C489.181 23.1272 486.947 23.195 484.581 23.195C481.131 23.195 475.678 23.0948 473.573 22.9978L472.752 22.9655V25.8556L473.408 25.9526C477.055 26.6088 477.482 27.8922 477.482 38.5022V77.9935C477.482 88.6067 477.055 89.8868 473.408 90.5431L472.752 90.6401V93.5302L473.573 93.4978C475.675 93.4009 481.131 93.3006 484.581 93.3006C487.865 93.3006 491.282 93.4009 494.373 93.4655C497.001 93.5302 499.432 93.5981 501.372 93.5981C524.635 93.5981 539.68 79.7328 539.68 58.2802C539.68 50.0011 536.722 22.9946 498.643 22.9946V22.9978ZM499.3 89.2015C495.915 89.2015 493.154 88.972 491.677 88.5776V28.0571C493.319 27.6304 496.639 27.4009 497.887 27.4009C510.734 27.4009 523.875 31.0797 523.875 58.2834C523.875 79.0797 515.825 89.2015 499.3 89.2015V89.2015Z" fill="#EF452A"/>
<path d="M259.031 15.6725C261.33 14.2274 264.352 13.3384 267.081 13.3384C270.398 13.3384 272.864 14.027 275.163 16.1962C278.185 19.054 280.846 24.5755 284.855 34.7264L290.964 50.3988L282.718 73.5292L269.05 36.4365C267.605 32.5927 267.407 30.2264 267.407 29.1434C267.407 27.5335 267.934 26.5152 270.724 25.9559L271.348 25.8589V22.9688L270.527 23.0012C268.458 23.0981 261.524 23.1983 258.042 23.1983C254.955 23.1983 250.125 23.0981 248.053 23.0012L247.232 22.9688V25.8589L247.888 25.9559C249.563 26.2501 250.581 27.6984 254.098 36.6984L276.734 95.4117H280.545L293.984 58.2511L308.308 94.8848L308.505 95.4117H312.349L330.155 45.3718C335.806 29.6024 337.516 27.5981 342.411 25.9559L342.938 25.7587V22.9656L342.116 22.9979C340.112 23.0949 337.878 23.1951 334.691 23.1951C331.177 23.1951 327.133 23.0949 325.131 22.9979L324.31 22.9656V25.8233L324.902 25.9559C326.842 26.3826 327.792 27.8955 327.792 30.5561C327.792 33.6111 326.939 37.5227 325.196 42.582L314.486 73.5001L297.895 28.6843C295.956 23.4279 294.281 19.3546 292.574 16.1994C291.918 14.9839 291.262 13.8654 290.602 12.9149C286.923 7.59382 282.915 6.11322 276.31 6.11322C266.751 6.11322 260.179 10.8104 257.716 12.9149C257.683 12.9473 257.651 12.9796 257.615 13.0119L257.221 13.3417L258.175 16.1994L259.028 15.6725H259.031Z" fill="#EF452A"/>
<path d="M545.492 22.0443C545.328 22.4063 545.198 22.7684 545.066 23.1272C545.033 23.2242 545.001 23.2921 545.001 23.3891C544.869 23.6186 544.804 23.8805 544.739 24.1132C544.739 24.1455 544.707 24.1779 544.707 24.2134C544.542 24.7727 544.413 25.2964 544.312 25.8557C544.215 26.2501 544.148 26.6445 544.115 27.0712C544.115 27.1035 544.115 27.1682 544.083 27.2037C544.051 27.3363 544.051 27.4979 544.051 27.6305C544.018 27.7953 543.986 27.9246 543.986 28.0895C543.921 28.7458 543.886 29.402 543.886 30.0938C543.886 44.2889 552.265 50.9225 560.412 57.3621C567.508 62.9807 574.245 68.2695 574.245 78.388C574.245 85.3546 569.942 89.6574 563.04 89.6574C551.77 89.6574 548.812 78.1585 548.092 71.3244L547.991 70.6003H545.363L545.166 71.0917C544.28 73.2608 544.148 75.8891 544.148 78.3848C544.148 79.1736 544.212 80.3891 544.312 81.8018C544.413 83.6736 544.542 85.8104 544.542 87.6175C544.542 88.8654 544.445 90.2134 544.377 91.6585L544.277 93.3007L545.328 93.0065C546.643 92.6445 547.726 92.5475 549.107 92.5475C550.881 92.5475 552.524 92.8772 554.428 93.2716C556.794 93.7307 559.487 94.2576 563.037 94.2576C576.802 94.2576 585.708 85.3546 585.708 71.5863C585.708 56.9322 576.608 49.804 568.558 43.5292C561.627 38.1402 555.055 33.0486 555.055 23.8805C555.055 23.0917 555.12 22.3708 555.22 21.679C555.32 21.1876 555.417 20.7253 555.582 20.2662C555.582 20.2016 555.582 20.166 555.614 20.1014C555.614 20.069 555.647 20.069 555.647 20.0367C555.779 19.61 555.941 19.2156 556.138 18.8535C556.27 18.5917 556.4 18.3621 556.565 18.1294C556.662 17.9645 556.762 17.7673 556.894 17.638C557.027 17.4408 557.156 17.2759 557.321 17.1111C557.454 16.9462 557.583 16.7813 557.748 16.652C557.913 16.4871 558.078 16.3223 558.275 16.193C558.802 15.7662 559.393 15.4042 560.05 15.11C560.344 14.9774 560.641 14.8481 560.971 14.7479C561.265 14.6477 561.562 14.5507 561.892 14.4861C562.351 14.3535 562.846 14.2565 563.37 14.2242C563.47 14.1919 563.534 14.1919 563.631 14.1919C564.158 14.1272 564.714 14.0949 565.306 14.0949C565.797 14.0949 566.26 14.1272 566.719 14.1596C567.113 14.1919 567.507 14.2242 567.87 14.2921C568.067 14.3244 568.232 14.3568 568.429 14.3891C568.759 14.4537 569.053 14.5216 569.382 14.6186C569.777 14.7188 570.171 14.8481 570.566 15.013C570.928 15.1455 571.29 15.3072 571.649 15.5044C572.043 15.7016 572.437 15.9311 572.8 16.193C573.061 16.3578 573.326 16.555 573.556 16.7846C573.753 16.9171 573.95 17.0787 574.148 17.3115C574.212 17.3438 574.245 17.3762 574.312 17.444C574.607 17.7059 574.872 18.0033 575.134 18.3298C575.155 18.3514 575.166 18.3729 575.166 18.3945C575.266 18.4915 575.331 18.5917 575.428 18.6887C575.525 18.7889 575.593 18.8859 575.657 18.9828C575.822 19.18 575.987 19.3772 576.116 19.6068C576.411 20.0335 576.676 20.4602 576.97 20.9548C577.034 21.0874 577.102 21.2167 577.199 21.3492C577.429 21.8083 577.658 22.2705 577.856 22.7619C578.085 23.2533 578.315 23.7802 578.512 24.3395C578.709 24.8665 578.939 25.458 579.103 26.0496C579.301 26.6412 579.498 27.2652 579.663 27.8891C579.86 28.5453 580.025 29.2016 580.19 29.8934L580.354 30.5173H583.277V29.6962C583.18 25.555 583.18 22.4677 583.18 20.958C583.18 19.3805 583.212 17.7382 583.212 16.193C583.245 15.0098 583.277 13.8945 583.345 12.9085V12.679C583.377 11.9904 583.409 11.3632 583.445 10.8072L583.542 9.68865L582.459 10.0184C579.831 10.7749 578.515 11.0044 576.808 11.0044C575.395 11.0044 574.18 10.7425 572.767 10.4128C570.863 9.98607 568.694 9.49146 565.309 9.49146C564.685 9.49146 564.061 9.52378 563.437 9.55611C563.108 9.58844 562.749 9.62076 562.419 9.68865C562.157 9.68865 561.86 9.72098 561.598 9.78887C561.171 9.85352 560.777 9.92141 560.35 10.0184C559.823 10.1154 559.3 10.2479 558.805 10.3805C558.149 10.5777 557.489 10.8072 556.865 11.0367C556.801 11.069 556.7 11.1014 556.636 11.1337C556.241 11.2986 555.847 11.4634 555.453 11.6606C555.123 11.7932 554.829 11.9548 554.499 12.152C554.04 12.3815 553.578 12.6434 553.151 12.9085C552.592 13.2705 552.068 13.6649 551.541 14.0917C551.05 14.4537 550.587 14.8481 550.161 15.2749C549.831 15.569 549.569 15.8988 549.275 16.1962L549.242 16.2285L549.21 16.2609C548.816 16.6552 548.486 17.0496 548.159 17.5087C548.095 17.5734 548.027 17.6412 547.962 17.7382C547.962 17.7705 547.93 17.7705 547.93 17.8029C547.6 18.1973 547.338 18.6563 547.044 19.083C547.012 19.1154 546.979 19.1477 546.979 19.18C546.685 19.6391 546.42 20.1014 546.191 20.5604C545.929 21.0518 545.699 21.5464 545.502 22.0378L545.492 22.0443Z" fill="#EF452A"/>
<path d="M117.129 79.8395L98.5668 22.3093L98.402 21.7824H94.1638L74.9095 71.1305C69.6531 84.7339 66.8923 88.9042 61.9979 90.5464L61.4709 90.7436V93.5367L62.2921 93.5044C64.1962 93.4074 66.4656 93.3072 69.7177 93.3072C73.2673 93.3072 77.3082 93.4074 79.2802 93.5044L80.1337 93.5367V90.679L79.5097 90.5464C77.5701 90.1197 76.6197 88.6068 76.6197 85.9462C76.6197 83.4505 77.4084 80.0658 78.9537 75.86C82.1089 75.7953 84.9343 75.763 100.736 75.763L102.149 80.0335C102.938 82.4322 103.823 85.4225 103.823 87.3589C103.823 88.9688 103.264 89.9871 100.507 90.5464L99.8503 90.6434V93.5335L100.671 93.5012C102.708 93.4042 109.675 93.304 113.189 93.304C116.376 93.304 121.468 93.4042 123.44 93.5012L124.261 93.5335V90.7404L123.734 90.5755C120.22 89.2953 118.148 82.9203 117.129 79.8331V79.8395ZM90.6822 45.013L96.1681 61.7684H84.3395L90.6789 45.013H90.6822ZM81.1229 70.2447L82.2414 67.2867H98.0108L98.9322 70.2447H81.1261H81.1229Z" fill="#EF452A"/>
<path d="M152.677 50.596C145.548 46.9495 139.338 43.7943 139.338 36.1391C139.338 30.1909 143.247 26.3471 149.328 26.3471C157.148 26.3471 161.583 31.0799 164.211 42.1488L164.344 42.7727H167.302L167.269 41.9516C167.172 37.8105 167.172 34.7232 167.172 33.2135C167.172 29.5346 167.269 25.5583 167.467 23.0949L167.531 21.7469L166.348 22.3062C165.068 22.9301 162.996 23.2598 160.83 23.2598C159.385 23.2598 158.169 22.998 156.756 22.7005C154.852 22.2415 152.715 21.7792 149.331 21.7792C137.24 21.7792 128.172 30.6176 128.172 42.346C128.172 54.1747 137.011 59.0368 144.863 63.3396C151.729 67.1187 158.234 70.7005 158.234 78.388C158.234 85.3546 153.963 89.6574 147.065 89.6574C135.763 89.6574 132.837 78.1585 132.084 71.3245L132.019 70.6003H129.359L129.162 71.0917C128.276 73.2609 128.176 75.8568 128.176 78.3848C128.176 79.1736 128.24 80.3891 128.308 81.8018C128.408 83.6736 128.538 85.8105 128.538 87.6176C128.538 88.8654 128.473 90.2135 128.373 91.6585L128.273 93.3008L129.356 93.0066C130.636 92.6445 131.722 92.5475 133.102 92.5475C134.877 92.5475 136.519 92.8773 138.423 93.2717C140.79 93.7307 143.483 94.2577 147.065 94.2577C160.83 94.2577 169.736 85.3546 169.736 71.5863C169.736 59.2986 160.668 54.6661 152.683 50.5928L152.677 50.596Z" fill="#EF452A"/>
<path d="M224.237 28.3222C224.237 27.4009 224.269 26.4828 224.269 25.5938C224.302 24.7403 224.334 23.9192 224.334 23.1304V21.9149L223.216 22.4063C219.831 23.8513 211.979 24.1164 198.64 24.1164C182.408 24.1164 176.79 23.7544 173.67 22.4063L172.587 21.9149V23.1304C172.587 23.9192 172.587 24.7403 172.62 25.5938C172.652 26.4796 172.684 27.4009 172.684 28.3222C172.684 32.4634 172.552 36.3072 172.487 38.3761L172.455 39.1972H175.445L175.542 38.541C176.693 32.2662 177.252 29.111 191.082 29.111H191.344V78C191.344 88.6132 190.917 89.8934 187.271 90.5496L186.614 90.6466V93.5367L187.468 93.5044C189.504 93.4074 194.958 93.3072 198.443 93.3072C201.928 93.3072 207.378 93.4074 209.451 93.5044L210.272 93.5367V90.6466L209.615 90.5496C205.969 89.8934 205.574 88.61 205.574 78V29.111H205.804C219.637 29.111 220.229 32.2662 221.344 38.541L221.476 39.1972H224.467L224.434 38.3761C224.334 36.2748 224.237 32.3955 224.237 28.3222V28.3222Z" fill="#EF452A"/>
<path d="M543.95 16.1961C544.739 15.0129 545.661 13.9299 546.679 12.9116H295.4C295.991 13.9299 296.583 15.0129 297.175 16.1961H543.95Z" fill="#EF452A"/>
<path d="M0 0L0 115.487H600V0L0 0ZM264.779 4.1056L595.894 4.1056V12.9116H587.45C587.418 13.8976 587.353 15.0485 587.353 16.1961H595.894V99.2877H4.1056V16.1961H253.839L253.312 14.6509L252.753 12.9084H4.1056V4.1056L264.779 4.1056ZM4.1056 111.378V102.572H595.894V111.378H4.1056Z" fill="#EF452A"/>
</svg>
