<?xml version="1.0" encoding="iso-8859-1"?>
<!-- Generator: Adobe Illustrator 27.0.0, SVG Export Plug-In . SVG Version: 6.00 Build 0)  -->
<svg version="1.1" id="Layer_1" xmlns="http://www.w3.org/2000/svg" xmlns:xlink="http://www.w3.org/1999/xlink" x="0px" y="0px"
	 width="375px" height="175px" viewBox="0 0 375 175" enable-background="new 0 0 375 175" xml:space="preserve">
<g>
	<path fill="#EE4529" d="M120.743,94.588c-1.782,0.085-3.817,0.17-6.702,0.17c-3.139,0-6.788-0.085-8.655-0.17v1.273
		c2.291,0.51,3.139,2.376,3.139,4.837c0,3.055-0.932,6.873-2.375,11.031l-10.267,29.698L80.27,99.254
		c-6.11-16.46-9.249-19.855-18.752-19.855c-6.788,0-12.642,2.8-16.376,6.025l0.424,1.273c2.291-1.443,5.175-2.206,7.636-2.206
		c7.636,0,10.437,3.903,16.631,19.685l5.6,14.34l-8.146,22.91l-12.982-35.214c-1.273-3.394-1.527-5.6-1.527-6.788
		c0-1.951,0.934-3.054,3.563-3.564v-1.273c-1.866,0.085-8.146,0.17-11.285,0.17c-2.885,0-7.212-0.085-8.994-0.17v1.273
		c1.951,0.34,2.969,2.036,6.109,10.097l20.194,52.353h2.461l12.558-34.705l13.576,34.705h2.46l15.867-44.547
		c5.092-14.255,6.704-16.291,11.455-17.904V94.588z"/>
	<path fill="#EE4529" d="M149.679,94.333c-16.376,0-31.395,12.898-31.395,31.565c0,18.752,15.019,31.394,31.395,31.394
		c16.377,0,31.395-12.642,31.395-31.394C181.074,107.231,166.056,94.333,149.679,94.333z M149.679,154.576
		c-12.982,0-18.921-8.994-18.921-28.764c0-19.685,5.939-28.765,18.921-28.765c12.982,0,18.922,9.079,18.922,28.765
		C168.602,145.583,162.662,154.576,149.679,154.576z"/>
	<path fill="#EE4529" d="M149.679,116.988h-0.34c-0.084,5.345-2.715,8.57-7.636,8.74v0.34c4.921,0.17,7.552,3.394,7.636,8.74h0.34
		c0.086-5.346,2.715-8.655,7.637-8.74v-0.34C152.395,125.643,149.765,122.333,149.679,116.988z"/>
	<path fill="#EE4529" d="M217.223,127.17c9.333-3.224,13.236-8.316,13.236-15.612c0-10.097-7.382-16.97-22.401-16.97
		c-2.375,0-6.109,0.17-10.691,0.17c-3.223,0-8.146-0.085-10.011-0.17v1.273c3.903,0.679,4.241,2.461,4.241,11.964v35.551
		c0,9.505-0.338,11.286-4.241,11.966v1.272c1.866-0.084,6.788-0.17,9.927-0.17s8.06,0.086,9.927,0.17v-1.272
		c-3.903-0.68-4.243-2.461-4.243-11.966v-14.338h2.799c8.316,15.272,11.116,21.636,14.934,24.777
		c3.395,2.799,7.383,2.969,9.419,2.969c4.413,0,5.176-0.764,5.176-0.764v-0.678C231.307,153.982,220.956,135.316,217.223,127.17z
		 M206.786,126.746h-3.819V97.897c0.848-0.424,2.206-0.764,4.157-0.764c7.552,0,11.031,5.006,11.031,15.358
		C218.155,122.333,215.016,126.746,206.786,126.746z"/>
	<path fill="#EE4529" d="M261.514,94.588c-4.497,0-8.314,0.17-12.642,0.17c-3.139,0-8.06-0.085-9.927-0.17v1.273
		c3.903,0.679,4.243,2.461,4.243,11.964v35.551c0,9.505-0.34,11.286-4.243,11.966v1.272c1.867-0.084,6.788-0.17,9.927-0.17
		c5.43,0,11.285,0.254,15.104,0.254c22.401,0,33.77-14.17,33.77-31.055C297.746,114.867,292.485,94.588,261.514,94.588z
		 M262.108,154.152c-2.63,0-6.024-0.17-7.55-0.764V97.897c1.358-0.509,5.091-0.764,6.278-0.764c8.909,0,24.097,1.103,24.097,28.51
		C284.933,144.989,277.382,154.152,262.108,154.152z"/>
	<path fill="#EE4529" d="M311.58,94.672c0-6.533,4.241-9.503,9.927-9.503c7.042,0,11.539,3.988,14.084,14.764h1.358
		c-0.084-3.733-0.084-6.533-0.084-7.891c0-2.97,0.084-6.703,0.254-9.164c-2.291,0.679-3.563,0.934-5.261,0.934
		c-3.139,0-5.091-1.358-10.351-1.358c-10.691,0-18.582,7.806-18.582,17.819c0,23.758,27.322,23.673,27.322,43.443
		c0,6.278-3.733,10.861-10.777,10.861c-9.587,0-13.236-8.57-14.17-17.139h-1.272c-0.764,1.867-0.849,4.243-0.849,6.278
		c0,1.613,0.34,5.43,0.34,8.317c0,1.272-0.084,2.63-0.17,4.157c1.188-0.34,2.207-0.425,3.565-0.425
		c3.733,0,6.872,1.527,12.557,1.527c13.492,0,19.686-9.079,19.686-19.685C339.156,113.509,311.58,113.085,311.58,94.672z"/>
	<path fill="#EE4529" d="M138.11,79.607c0-5.43,0.254-12.643,0.339-15.528h-1.273c-2.291,11.709-7.212,12.303-12.982,12.303
		c-2.375,0-7.127-0.085-9.842-0.34V30.818c0-9.503,0.339-11.286,4.242-11.964v-1.273c-1.867,0.085-6.788,0.17-9.927,0.17
		s-8.061-0.085-9.927-0.17v1.273c3.903,0.679,4.242,2.461,4.242,11.964V66.37c0,9.503-0.339,11.286-4.242,11.964v1.273
		c1.867-0.085,6.788-0.17,9.927-0.17C118.849,79.437,131.746,79.437,138.11,79.607z"/>
	<path fill="#EE4529" d="M196.263,78.334c-3.31-1.188-5.177-6.449-6.365-10.097l-16.715-51.759h-2.8l-17.14,43.952
		c-4.752,12.303-7.297,16.291-12.049,17.904v1.273c1.782-0.085,3.818-0.17,6.703-0.17c3.139,0,6.788,0.085,8.655,0.17v-1.273
		c-2.291-0.51-3.139-2.376-3.139-4.837c0-2.8,1.018-6.364,2.291-9.758c3.14-0.085,5.006-0.085,20.619-0.085l1.443,4.328
		c0.934,2.885,1.527,5.176,1.527,6.788c0,1.951-0.934,3.054-3.564,3.564v1.273c1.867-0.085,8.146-0.17,11.285-0.17
		c2.885,0,7.467,0.085,9.25,0.17V78.334z M166.819,34.551l5.854,17.904h-12.642L166.819,34.551z M157.146,60.091l1.527-4.073h15.188
		l1.273,4.073H157.146z"/>
	<path fill="#EE4529" d="M209.841,28.697c0-5.855,3.987-9.503,9.673-9.503c7.042,0,11.539,3.988,14.084,14.764h1.358
		c-0.084-3.733-0.084-6.533-0.084-7.891c0-2.97,0.084-6.703,0.254-9.164c-1.442,0.679-3.563,0.934-5.261,0.934
		c-3.139,0-5.091-1.358-10.351-1.358c-10.692,0-18.328,7.806-18.328,17.819c0,19.346,27.068,16.885,27.068,32.413
		c0,6.278-3.734,10.861-10.777,10.861c-9.587,0-13.236-8.57-14.17-17.14h-1.273c-0.764,1.867-0.848,4.243-0.848,6.279
		c0,1.612,0.34,5.43,0.34,8.316c0,1.273-0.086,2.63-0.17,4.157c1.188-0.339,2.206-0.424,3.563-0.424
		c3.734,0,6.874,1.527,12.558,1.527c13.492,0,19.686-9.079,19.686-19.685C237.163,40.575,209.841,44.309,209.841,28.697z"/>
	<path fill="#EE4529" d="M242.425,30.733c1.102-6.109,2.036-9.079,14.678-9.079h0.934V66.37c0,9.503-0.34,11.286-4.243,11.964v1.273
		c1.867-0.085,6.788-0.17,9.927-0.17c3.141,0,8.061,0.085,9.929,0.17v-1.273c-3.904-0.679-4.243-2.461-4.243-11.964V21.654h0.932
		c12.644,0,13.576,2.97,14.68,9.079h1.358c-0.084-2.036-0.17-5.515-0.17-9.079c0-1.612,0.086-3.224,0.086-4.667
		c-2.971,1.273-9.249,1.612-22.401,1.612c-14.594,0-19.77-0.34-22.74-1.612c0,1.443,0.084,3.054,0.084,4.667
		c0,3.564-0.084,7.043-0.168,9.079H242.425z"/>
	<path fill="#EE4529" d="M58.731,46.483c-0.003,0.114,0.005,0.198,0.026,0.253c0.034,0.083,0.091,0.129,0.17,0.139
		c0.079,0.011,0.177,0.016,0.294,0.016h3.011c0.034,0,0.067,0.002,0.098,0.005c0.031,0.003,0.06,0.002,0.088-0.005
		c0.034-0.014,0.067-0.018,0.098-0.011c0.031,0.008,0.06,0.008,0.088,0c0.034-0.007,0.067-0.01,0.098-0.01
		c0.031,0,0.063-0.003,0.098-0.01c0.076-0.013,0.155-0.026,0.237-0.036c0.082-0.01,0.161-0.029,0.237-0.057
		c0.151-0.048,0.294-0.102,0.428-0.159c0.134-0.059,0.259-0.129,0.376-0.211c0.302-0.22,0.526-0.502,0.67-0.846
		c0.021-0.055,0.038-0.113,0.052-0.175c0.014-0.061,0.027-0.127,0.041-0.195c0.014-0.069,0.026-0.165,0.036-0.289
		c0.011-0.124,0.009-0.223-0.005-0.3v-0.113c-0.014-0.055-0.024-0.112-0.031-0.169c-0.007-0.059-0.021-0.116-0.041-0.17
		c-0.062-0.213-0.148-0.399-0.258-0.557c-0.117-0.164-0.268-0.309-0.454-0.433c-0.055-0.034-0.12-0.07-0.196-0.108
		c-0.076-0.038-0.12-0.084-0.134-0.139c-0.014-0.034-0.012-0.063,0.005-0.087c0.017-0.024,0.033-0.043,0.047-0.057
		c0.041-0.055,0.089-0.099,0.144-0.134c0.055-0.034,0.107-0.076,0.154-0.123c0.144-0.158,0.261-0.361,0.351-0.608
		c0.014-0.034,0.022-0.071,0.026-0.108c0.004-0.038,0.012-0.081,0.026-0.129c0-0.013,0.002-0.034,0.005-0.061
		c0.003-0.028,0.005-0.052,0.005-0.072v-0.093c0.007-0.013,0.012-0.036,0.016-0.067c0.003-0.031,0.002-0.056-0.005-0.077
		c-0.007-0.028-0.009-0.054-0.005-0.082c0.003-0.028,0.002-0.055-0.005-0.083c-0.014-0.054-0.022-0.106-0.026-0.154
		c-0.003-0.048-0.012-0.097-0.026-0.144c-0.055-0.185-0.128-0.351-0.217-0.495c-0.089-0.144-0.203-0.264-0.34-0.361
		c-0.096-0.069-0.203-0.125-0.319-0.17c-0.117-0.045-0.241-0.091-0.371-0.138c-0.055-0.014-0.108-0.024-0.16-0.031
		c-0.052-0.007-0.105-0.018-0.16-0.031c-0.048-0.014-0.094-0.019-0.139-0.016c-0.045,0.004-0.088-0.002-0.129-0.015h-0.062
		c-0.035-0.007-0.069-0.007-0.103,0c-0.034,0.007-0.069,0.003-0.103-0.01c-0.041-0.007-0.086-0.009-0.134-0.005
		c-0.048,0.003-0.097,0.005-0.144,0.005h-3.073c-0.014,0.007-0.028,0.008-0.041,0.005c-0.014-0.003-0.028-0.002-0.042,0.005
		c-0.076,0.021-0.127,0.055-0.154,0.103c-0.035,0.055-0.05,0.128-0.047,0.222c0.003,0.093,0.005,0.18,0.005,0.263V46.2
		C58.736,46.276,58.735,46.37,58.731,46.483z M63.18,44.2c0.027,0.055,0.053,0.138,0.077,0.247c0.024,0.111,0.029,0.213,0.016,0.31
		v0.062c-0.021,0.076-0.042,0.149-0.062,0.221c-0.021,0.072-0.048,0.136-0.082,0.191c-0.083,0.124-0.191,0.215-0.325,0.273
		c-0.134,0.059-0.287,0.1-0.459,0.123c-0.172,0.024-0.354,0.035-0.547,0.031c-0.192-0.003-0.391-0.005-0.598-0.005
		c-0.062,0-0.134,0.002-0.216,0.005c-0.083,0.004-0.163,0.004-0.242,0c-0.079-0.003-0.149-0.013-0.211-0.031
		c-0.062-0.017-0.107-0.043-0.134-0.077c-0.034-0.048-0.053-0.115-0.057-0.201c-0.004-0.086-0.005-0.17-0.005-0.253v-0.918
		c0-0.076,0-0.156,0-0.243c0-0.086,0.017-0.156,0.051-0.211c0.028-0.048,0.083-0.082,0.165-0.103c0.013,0,0.026,0.003,0.036,0.006
		c0.01,0.003,0.022-0.002,0.036-0.016h1.165c0.151,0,0.297,0.003,0.438,0.01c0.141,0.008,0.27,0.028,0.387,0.062
		C62.895,43.781,63.084,43.953,63.18,44.2z M60.335,41.859v-0.556c0-0.075,0-0.15,0-0.222c0-0.072,0.017-0.132,0.051-0.18
		c0.028-0.041,0.076-0.072,0.145-0.092c0.013-0.007,0.029-0.01,0.046-0.01s0.033-0.004,0.047-0.011H61.5
		c0.096,0,0.197-0.002,0.304-0.005c0.107-0.003,0.201,0.005,0.284,0.026c0.055,0,0.096,0.003,0.123,0.01
		c0.055,0.014,0.107,0.026,0.155,0.036c0.048,0.01,0.093,0.023,0.134,0.036c0.158,0.076,0.278,0.18,0.361,0.315
		c0.082,0.134,0.117,0.318,0.103,0.551c-0.014,0.144-0.044,0.262-0.093,0.351c-0.103,0.172-0.258,0.292-0.464,0.361
		c-0.076,0.028-0.165,0.046-0.268,0.057c-0.103,0.01-0.211,0.015-0.325,0.015c-0.113,0-0.227-0.002-0.34-0.005
		c-0.113-0.003-0.221-0.005-0.325-0.005c-0.062,0-0.13,0.002-0.206,0.005c-0.076,0.003-0.15,0.003-0.222,0s-0.138-0.012-0.196-0.026
		c-0.058-0.013-0.102-0.038-0.129-0.072c-0.014-0.027-0.024-0.056-0.031-0.087c-0.007-0.031-0.017-0.067-0.031-0.108v-0.103
		c-0.007-0.034-0.009-0.077-0.005-0.129C60.333,41.958,60.335,41.908,60.335,41.859z"/>
	<path fill="#EE4529" d="M58.205,53.856c-0.007,0.045-0.007,0.088,0,0.129c0.014,0.028,0.019,0.056,0.016,0.087
		c-0.004,0.031-0.002,0.064,0.005,0.098c0.014,0.055,0.024,0.108,0.031,0.16c0.007,0.051,0.017,0.101,0.031,0.149
		c0.007,0.028,0.01,0.053,0.01,0.077s0.007,0.053,0.021,0.087c0.034,0.11,0.065,0.218,0.093,0.325
		c0.027,0.107,0.062,0.208,0.103,0.305c0.179,0.412,0.411,0.768,0.696,1.067c0.285,0.299,0.634,0.538,1.047,0.717
		c0.076,0.034,0.153,0.066,0.232,0.092c0.079,0.028,0.156,0.055,0.232,0.083c0.055,0.013,0.11,0.025,0.165,0.036
		c0.055,0.01,0.11,0.022,0.165,0.036c0.055,0.013,0.107,0.022,0.155,0.025c0.048,0.003,0.099,0.013,0.154,0.026h0.114
		c0.034,0.007,0.067,0.008,0.098,0.005c0.031-0.003,0.063-0.002,0.098,0.005c0.021,0.007,0.065,0.013,0.134,0.016
		c0.069,0.003,0.117,0.002,0.144-0.005l0.34-0.031c0.034-0.008,0.071-0.011,0.108-0.011c0.038,0,0.074-0.007,0.108-0.02
		c0.076-0.014,0.151-0.028,0.227-0.041c0.076-0.014,0.151-0.034,0.227-0.062c0.515-0.172,0.949-0.418,1.299-0.737
		c0.351-0.32,0.629-0.72,0.835-1.201c0.048-0.11,0.088-0.223,0.118-0.341c0.031-0.117,0.064-0.237,0.098-0.361
		c0.014-0.048,0.024-0.096,0.031-0.144c0.007-0.048,0.017-0.096,0.031-0.144c0.014-0.076,0.021-0.151,0.021-0.226
		c0-0.076,0.007-0.148,0.021-0.216v-0.134c0.013-0.041,0.019-0.112,0.016-0.211c-0.004-0.099-0.012-0.17-0.026-0.211v-0.082
		c-0.007-0.034-0.009-0.074-0.005-0.118c0.003-0.045-0.002-0.088-0.016-0.129c-0.014-0.041-0.021-0.084-0.021-0.129
		c0-0.044-0.007-0.091-0.021-0.138c-0.021-0.076-0.038-0.15-0.052-0.222c-0.014-0.072-0.031-0.143-0.052-0.211
		c-0.034-0.102-0.067-0.199-0.098-0.289c-0.031-0.089-0.067-0.182-0.108-0.278c-0.055-0.131-0.12-0.253-0.196-0.367
		c-0.075-0.113-0.151-0.225-0.226-0.335c-0.028-0.034-0.059-0.071-0.093-0.108c-0.035-0.038-0.069-0.074-0.103-0.108
		c-0.062-0.082-0.141-0.163-0.237-0.242c-0.096-0.079-0.189-0.149-0.279-0.211c-0.282-0.199-0.602-0.356-0.959-0.469
		c-0.357-0.113-0.78-0.163-1.268-0.149c-0.014,0.007-0.033,0.007-0.057,0c-0.024-0.007-0.043-0.007-0.057,0l-0.309,0.031
		c-0.034,0.007-0.067,0.01-0.098,0.01c-0.031,0-0.063,0.007-0.098,0.021c-0.096,0.028-0.194,0.051-0.294,0.072
		c-0.1,0.02-0.195,0.048-0.284,0.082c-0.385,0.159-0.712,0.347-0.98,0.567c-0.268,0.22-0.505,0.495-0.712,0.825
		c-0.069,0.103-0.127,0.213-0.175,0.33c-0.048,0.117-0.1,0.234-0.155,0.351c-0.041,0.11-0.072,0.221-0.093,0.335
		c-0.021,0.114-0.048,0.229-0.083,0.346c-0.014,0.034-0.021,0.071-0.021,0.108c0,0.038-0.007,0.074-0.021,0.108
		c-0.014,0.041-0.019,0.084-0.016,0.129c0.003,0.044-0.002,0.091-0.016,0.139v0.061c-0.007,0.034-0.007,0.067,0,0.098
		c0.007,0.031,0.007,0.064,0,0.098c-0.014,0.034-0.021,0.087-0.021,0.159s0.007,0.126,0.021,0.16
		C58.212,53.768,58.212,53.811,58.205,53.856z M59.814,53.314c0.007-0.034,0.007-0.072,0-0.113c-0.007-0.041-0.004-0.079,0.01-0.113
		c0.007-0.028,0.011-0.054,0.011-0.077c0-0.024,0.003-0.05,0.01-0.078c0.021-0.076,0.036-0.149,0.046-0.221
		c0.01-0.072,0.026-0.146,0.047-0.222c0.103-0.31,0.239-0.574,0.407-0.794c0.168-0.22,0.397-0.392,0.685-0.515
		c0.062-0.028,0.129-0.05,0.201-0.067c0.072-0.018,0.146-0.033,0.222-0.047c0.034-0.013,0.065-0.018,0.093-0.015
		c0.027,0.003,0.055,0.002,0.082-0.005c0.014-0.007,0.029-0.008,0.047-0.005c0.017,0.003,0.032,0.002,0.046-0.006
		c0.509,0,0.906,0.109,1.191,0.326c0.285,0.216,0.503,0.5,0.655,0.85c0.034,0.076,0.062,0.152,0.082,0.227
		c0.021,0.076,0.041,0.151,0.062,0.227c0.013,0.041,0.021,0.079,0.021,0.113c0.013,0.049,0.022,0.098,0.026,0.149
		c0.003,0.052,0.012,0.105,0.026,0.16c0.013,0.028,0.019,0.053,0.015,0.077c-0.004,0.024-0.002,0.049,0.005,0.077v0.175
		c0.013,0.034,0.021,0.084,0.021,0.149c0,0.065-0.007,0.115-0.021,0.149v0.083c0,0.034,0,0.067,0,0.097
		c0,0.031-0.004,0.06-0.011,0.088l-0.031,0.247c-0.028,0.089-0.05,0.179-0.067,0.268c-0.017,0.09-0.043,0.172-0.078,0.248
		c-0.117,0.295-0.259,0.536-0.428,0.722c-0.169,0.186-0.401,0.337-0.696,0.454c-0.062,0.028-0.128,0.046-0.196,0.057
		c-0.069,0.01-0.138,0.022-0.206,0.036c-0.034,0.013-0.066,0.018-0.093,0.015c-0.028-0.003-0.058-0.002-0.093,0.005h-0.083
		c-0.048,0-0.093,0-0.134,0c-0.042,0-0.083-0.007-0.124-0.02c-0.034-0.007-0.067-0.009-0.098-0.006
		c-0.031,0.004-0.063-0.001-0.098-0.015c-0.097-0.028-0.188-0.055-0.273-0.082c-0.086-0.028-0.167-0.065-0.242-0.113
		c-0.041-0.021-0.081-0.042-0.119-0.062c-0.038-0.021-0.074-0.048-0.108-0.082c-0.165-0.117-0.302-0.27-0.412-0.459
		c-0.11-0.19-0.203-0.394-0.278-0.613c-0.028-0.069-0.047-0.141-0.057-0.216c-0.01-0.076-0.026-0.152-0.047-0.227
		c0-0.027-0.002-0.053-0.005-0.077c-0.004-0.024-0.005-0.05-0.005-0.077c-0.007-0.028-0.01-0.057-0.01-0.088
		c0-0.03-0.004-0.06-0.01-0.087v-0.113c-0.014-0.034-0.019-0.098-0.016-0.191C59.791,53.412,59.8,53.349,59.814,53.314z"/>
	<path fill="#EE4529" d="M66.894,43.545c-0.007,0.045-0.007,0.088,0,0.129c0.014,0.028,0.019,0.056,0.015,0.087
		c-0.004,0.031-0.002,0.064,0.005,0.098c0.014,0.055,0.024,0.108,0.031,0.16c0.007,0.051,0.017,0.101,0.031,0.149
		c0.007,0.028,0.01,0.053,0.01,0.077s0.007,0.053,0.021,0.087c0.034,0.11,0.065,0.218,0.093,0.325
		c0.027,0.107,0.062,0.208,0.103,0.305c0.179,0.412,0.411,0.768,0.696,1.067c0.285,0.299,0.634,0.538,1.047,0.717
		c0.076,0.034,0.153,0.065,0.232,0.092c0.079,0.028,0.156,0.055,0.232,0.083c0.055,0.013,0.109,0.025,0.165,0.036
		c0.055,0.01,0.11,0.022,0.165,0.036c0.055,0.013,0.107,0.022,0.155,0.025c0.048,0.003,0.099,0.013,0.154,0.026h0.114
		c0.034,0.007,0.067,0.008,0.098,0.005c0.031-0.003,0.063-0.002,0.098,0.005c0.021,0.007,0.065,0.013,0.134,0.016
		c0.069,0.003,0.117,0.002,0.144-0.005l0.34-0.031c0.034-0.008,0.071-0.011,0.108-0.011s0.074-0.007,0.108-0.02
		c0.076-0.014,0.151-0.028,0.227-0.041c0.076-0.014,0.151-0.034,0.227-0.062c0.515-0.172,0.949-0.418,1.299-0.737
		c0.351-0.32,0.629-0.72,0.835-1.201c0.048-0.11,0.088-0.223,0.118-0.341c0.031-0.117,0.064-0.237,0.098-0.361
		c0.014-0.048,0.024-0.096,0.031-0.144c0.007-0.048,0.017-0.096,0.031-0.144c0.014-0.075,0.021-0.151,0.021-0.226
		s0.007-0.148,0.021-0.216v-0.134c0.013-0.041,0.019-0.112,0.016-0.211c-0.004-0.099-0.012-0.17-0.026-0.211v-0.082
		c-0.007-0.034-0.009-0.074-0.005-0.118c0.003-0.045-0.002-0.088-0.016-0.129c-0.014-0.041-0.021-0.084-0.021-0.129
		c0-0.044-0.007-0.091-0.021-0.138c-0.021-0.075-0.038-0.15-0.052-0.222c-0.014-0.072-0.031-0.143-0.052-0.211
		c-0.034-0.102-0.067-0.199-0.098-0.289c-0.031-0.089-0.067-0.182-0.108-0.278c-0.055-0.131-0.12-0.252-0.196-0.367
		c-0.076-0.113-0.151-0.225-0.227-0.335c-0.028-0.034-0.059-0.071-0.093-0.108c-0.035-0.038-0.069-0.074-0.103-0.108
		c-0.062-0.082-0.141-0.163-0.237-0.242c-0.097-0.079-0.189-0.149-0.279-0.211c-0.282-0.199-0.602-0.356-0.959-0.469
		c-0.357-0.113-0.78-0.163-1.268-0.149c-0.014,0.007-0.033,0.007-0.057,0c-0.024-0.007-0.043-0.007-0.057,0l-0.309,0.031
		c-0.034,0.007-0.067,0.01-0.098,0.01c-0.031,0-0.063,0.007-0.098,0.021c-0.097,0.028-0.194,0.051-0.294,0.072
		c-0.1,0.02-0.195,0.048-0.284,0.082c-0.385,0.159-0.712,0.347-0.98,0.567c-0.268,0.22-0.505,0.495-0.712,0.825
		c-0.069,0.103-0.127,0.213-0.175,0.33c-0.048,0.117-0.1,0.234-0.155,0.351c-0.041,0.11-0.072,0.221-0.093,0.335
		c-0.021,0.114-0.048,0.229-0.083,0.346c-0.014,0.034-0.021,0.071-0.021,0.108c0,0.038-0.007,0.074-0.021,0.108
		c-0.014,0.041-0.019,0.084-0.016,0.129c0.003,0.044-0.002,0.091-0.015,0.139v0.061c-0.007,0.034-0.007,0.067,0,0.098
		c0.007,0.031,0.007,0.064,0,0.098c-0.014,0.034-0.021,0.087-0.021,0.159c0,0.072,0.007,0.126,0.021,0.16
		C66.901,43.458,66.901,43.501,66.894,43.545z M68.503,43.004c0.007-0.034,0.007-0.072,0-0.113c-0.007-0.041-0.004-0.079,0.01-0.113
		c0.007-0.028,0.01-0.054,0.01-0.077c0-0.024,0.003-0.05,0.011-0.078c0.021-0.076,0.036-0.149,0.046-0.221
		c0.011-0.072,0.026-0.146,0.047-0.221c0.103-0.31,0.239-0.574,0.407-0.794c0.168-0.22,0.397-0.392,0.686-0.515
		c0.062-0.028,0.129-0.05,0.201-0.067c0.072-0.018,0.146-0.033,0.221-0.047c0.034-0.013,0.065-0.018,0.093-0.015
		c0.027,0.003,0.055,0.002,0.082-0.005c0.014-0.007,0.029-0.008,0.047-0.005c0.017,0.003,0.032,0.002,0.046-0.006
		c0.509,0,0.906,0.109,1.191,0.326c0.285,0.216,0.503,0.5,0.655,0.85c0.034,0.076,0.062,0.152,0.082,0.227s0.041,0.151,0.062,0.226
		c0.013,0.041,0.021,0.079,0.021,0.113c0.013,0.049,0.022,0.098,0.026,0.149c0.003,0.052,0.012,0.105,0.026,0.16
		c0.013,0.028,0.019,0.053,0.016,0.077c-0.004,0.024-0.002,0.049,0.005,0.077v0.175c0.013,0.034,0.021,0.084,0.021,0.149
		c0,0.065-0.007,0.115-0.021,0.149v0.083c0,0.034,0,0.067,0,0.097c0,0.031-0.004,0.06-0.01,0.088l-0.031,0.247
		c-0.028,0.089-0.05,0.179-0.067,0.268c-0.017,0.09-0.043,0.172-0.078,0.248c-0.117,0.295-0.259,0.536-0.427,0.722
		c-0.169,0.186-0.401,0.337-0.696,0.454c-0.062,0.028-0.127,0.046-0.196,0.057c-0.069,0.01-0.138,0.022-0.206,0.036
		c-0.034,0.013-0.065,0.018-0.093,0.015c-0.028-0.003-0.058-0.002-0.093,0.005h-0.083c-0.048,0-0.093,0-0.134,0
		c-0.042,0-0.083-0.007-0.124-0.02c-0.034-0.007-0.067-0.009-0.098-0.006c-0.031,0.004-0.063-0.001-0.098-0.015
		c-0.097-0.028-0.188-0.054-0.273-0.082c-0.086-0.028-0.167-0.065-0.243-0.113c-0.041-0.021-0.081-0.042-0.119-0.062
		c-0.038-0.021-0.074-0.048-0.108-0.082c-0.165-0.117-0.302-0.27-0.412-0.459c-0.11-0.19-0.203-0.394-0.278-0.613
		c-0.028-0.069-0.047-0.141-0.057-0.216c-0.011-0.076-0.026-0.152-0.047-0.227c0-0.027-0.002-0.053-0.005-0.077
		c-0.004-0.024-0.005-0.049-0.005-0.077c-0.007-0.028-0.01-0.057-0.01-0.088c0-0.03-0.004-0.06-0.01-0.087v-0.113
		c-0.014-0.034-0.019-0.098-0.016-0.191C68.481,43.102,68.489,43.038,68.503,43.004z"/>
	<path fill="#EE4529" d="M73.943,56.743c-0.031-0.038-0.06-0.077-0.088-0.118l-0.371-0.526c-0.289-0.413-0.577-0.82-0.866-1.222
		c-0.289-0.402-0.577-0.81-0.866-1.222c-0.069-0.103-0.139-0.205-0.211-0.305c-0.072-0.1-0.143-0.201-0.211-0.304
		c-0.021-0.034-0.048-0.078-0.083-0.129c-0.034-0.051-0.044-0.105-0.031-0.159c0.013-0.076,0.041-0.136,0.082-0.18
		c0.042-0.045,0.086-0.091,0.134-0.139c0.124-0.11,0.24-0.227,0.35-0.351c0.241-0.241,0.481-0.485,0.722-0.732
		c0.24-0.247,0.481-0.491,0.722-0.732c0.055-0.048,0.105-0.097,0.149-0.144c0.045-0.048,0.091-0.1,0.139-0.154
		c0.034-0.034,0.069-0.067,0.103-0.098c0.034-0.031,0.068-0.064,0.103-0.098c0.013-0.027,0.031-0.064,0.052-0.108
		c0.021-0.044,0.01-0.084-0.031-0.118c-0.048-0.034-0.115-0.05-0.201-0.046c-0.086,0.003-0.167,0.005-0.242,0.005h-0.794
		c-0.062,0-0.129-0.002-0.201-0.005c-0.072-0.004-0.136,0.002-0.19,0.015c-0.097,0.021-0.175,0.057-0.237,0.108
		c-0.062,0.051-0.117,0.112-0.165,0.18c-0.014,0.014-0.026,0.024-0.036,0.031c-0.01,0.007-0.022,0.017-0.036,0.031
		c-0.027,0.034-0.055,0.065-0.082,0.092c-0.028,0.028-0.052,0.059-0.072,0.093c-0.014,0.013-0.031,0.028-0.052,0.041
		c-0.021,0.014-0.038,0.028-0.052,0.041c-0.021,0.049-0.052,0.086-0.093,0.113c-0.014,0.014-0.024,0.023-0.031,0.026
		c-0.007,0.003-0.014,0.013-0.021,0.026c-0.021,0.028-0.041,0.051-0.062,0.072c-0.021,0.02-0.041,0.041-0.062,0.062l-0.052,0.051
		c-0.083,0.11-0.175,0.21-0.279,0.299c-0.103,0.09-0.196,0.19-0.278,0.3c-0.021,0.02-0.038,0.034-0.052,0.041
		c-0.034,0.034-0.072,0.079-0.113,0.134c-0.034,0.048-0.076,0.091-0.124,0.128c-0.048,0.038-0.089,0.085-0.124,0.139
		c-0.014,0.014-0.028,0.024-0.041,0.031c-0.014,0.007-0.028,0.018-0.042,0.031c-0.021,0.034-0.044,0.067-0.072,0.098
		c-0.027,0.03-0.055,0.06-0.082,0.087c-0.035,0.034-0.062,0.059-0.083,0.072c-0.048,0.062-0.1,0.12-0.155,0.175
		c-0.055,0.055-0.11,0.11-0.165,0.165c-0.021,0.02-0.053,0.051-0.098,0.092c-0.045,0.041-0.091,0.055-0.139,0.041
		c-0.014,0-0.029-0.007-0.047-0.02c-0.017-0.014-0.029-0.028-0.036-0.041c-0.021-0.049-0.031-0.103-0.031-0.165s0-0.124,0-0.185
		v-0.227v-1.34v-0.413c0-0.041,0-0.081,0-0.118c0-0.038-0.004-0.074-0.01-0.108c-0.034-0.11-0.097-0.17-0.186-0.18
		c-0.089-0.01-0.2-0.015-0.33-0.015h-0.794c-0.014,0.007-0.028,0.008-0.041,0.005c-0.014-0.003-0.028-0.002-0.042,0.005
		c-0.069,0.021-0.124,0.055-0.165,0.103c-0.028,0.048-0.039,0.113-0.036,0.196c0.003,0.083,0.005,0.162,0.005,0.237v0.959v4.114
		v1.196c0,0.09,0,0.18,0,0.274c0,0.092,0.024,0.156,0.072,0.191c0.048,0.034,0.107,0.054,0.175,0.057
		c0.069,0.003,0.141,0.005,0.216,0.005h0.701c0.076,0,0.148-0.003,0.217-0.011c0.068-0.007,0.12-0.03,0.154-0.072
		c0.034-0.041,0.053-0.096,0.057-0.164c0.003-0.069,0.005-0.141,0.005-0.216v-0.732v-0.484c0-0.034-0.002-0.074-0.005-0.119
		c-0.003-0.045-0.002-0.084,0.005-0.118v-0.134c0-0.055,0.001-0.107,0.005-0.154c0.003-0.048,0.015-0.093,0.036-0.134
		c0.027-0.061,0.062-0.115,0.103-0.159c0.041-0.044,0.086-0.091,0.134-0.139c0.034-0.034,0.069-0.07,0.103-0.108
		c0.034-0.038,0.068-0.074,0.103-0.108c0.048-0.048,0.106-0.108,0.175-0.18c0.069-0.072,0.138-0.118,0.206-0.139
		c0.069-0.013,0.124,0.002,0.165,0.046c0.042,0.045,0.076,0.085,0.103,0.119c0.075,0.11,0.149,0.22,0.221,0.33
		c0.072,0.11,0.146,0.223,0.222,0.34c0.192,0.289,0.385,0.571,0.577,0.846c0.192,0.275,0.381,0.557,0.567,0.846
		c0.041,0.061,0.081,0.122,0.118,0.18c0.038,0.058,0.078,0.115,0.119,0.17c0.041,0.062,0.084,0.119,0.129,0.17
		c0.044,0.052,0.105,0.091,0.18,0.118c0.062,0.014,0.131,0.019,0.206,0.016c0.076-0.003,0.151-0.005,0.227-0.005h0.815
		c0.076,0,0.158,0,0.248,0c0.089,0,0.158-0.018,0.206-0.052c0.048-0.034,0.058-0.082,0.031-0.144
		c-0.028-0.061-0.052-0.11-0.072-0.144C74.003,56.82,73.974,56.78,73.943,56.743z"/>
	<path fill="#EE4529" d="M66.151,64.54c8.909,0,16.157-7.249,16.157-16.158s-7.248-16.157-16.157-16.157
		s-16.157,7.248-16.157,16.157S57.242,64.54,66.151,64.54z M66.151,33.992c7.934,0,14.39,6.455,14.39,14.39
		c0,7.935-6.455,14.39-14.39,14.39s-14.39-6.455-14.39-14.39C51.762,40.447,58.217,33.992,66.151,33.992z"/>
	<path fill="#EE4529" d="M301.121,43.616c0.007,0.028,0.008,0.053,0.005,0.077c-0.003,0.024,0.002,0.054,0.016,0.087
		c0.013,0.062,0.024,0.128,0.031,0.196c0.007,0.069,0.017,0.134,0.031,0.196c0.007,0.028,0.01,0.054,0.01,0.078
		c0,0.024,0.007,0.053,0.02,0.087c0.035,0.11,0.066,0.217,0.093,0.32c0.028,0.103,0.062,0.207,0.103,0.31
		c0.179,0.412,0.411,0.768,0.696,1.067c0.286,0.3,0.635,0.538,1.048,0.717c0.055,0.028,0.113,0.054,0.175,0.078
		c0.062,0.023,0.124,0.046,0.186,0.066c0.068,0.021,0.135,0.038,0.201,0.052c0.066,0.013,0.133,0.031,0.202,0.051
		c0.055,0.007,0.107,0.014,0.154,0.021c0.048,0.007,0.097,0.013,0.145,0.02c0.048,0,0.083,0.003,0.103,0.011
		c0.055,0.013,0.113,0.02,0.175,0.02c0.062,0,0.124,0,0.186,0h0.165c0.048-0.007,0.094-0.012,0.139-0.015
		c0.045-0.003,0.091-0.005,0.139-0.005c0.034-0.014,0.066-0.019,0.097-0.016c0.031,0.003,0.064-0.002,0.098-0.015
		c0.075-0.014,0.151-0.028,0.227-0.041c0.076-0.014,0.151-0.034,0.228-0.062c0.722-0.233,1.272-0.647,1.651-1.239
		c0.034-0.048,0.062-0.097,0.082-0.15c0.021-0.051,0.048-0.105,0.082-0.16c0.049-0.09,0.088-0.182,0.119-0.279
		c0.031-0.097,0.063-0.196,0.097-0.299l0.062-0.279c0.021-0.069,0.029-0.141,0.026-0.217c-0.003-0.076-0.03-0.131-0.077-0.165
		c-0.041-0.027-0.095-0.041-0.16-0.041c-0.066,0-0.128,0-0.191,0h-0.63c-0.055,0-0.113,0-0.175,0c-0.062,0-0.114,0.007-0.155,0.021
		c-0.069,0.034-0.113,0.082-0.134,0.144c-0.02,0.061-0.041,0.13-0.061,0.206c-0.035,0.083-0.066,0.165-0.093,0.248
		c-0.028,0.083-0.062,0.159-0.103,0.228c-0.089,0.144-0.191,0.273-0.304,0.387c-0.113,0.113-0.249,0.204-0.408,0.273
		c-0.069,0.034-0.139,0.059-0.212,0.072c-0.072,0.014-0.15,0.028-0.232,0.041c-0.021,0.008-0.051,0.011-0.093,0.011
		c-0.034,0.007-0.079,0.012-0.133,0.015c-0.056,0.003-0.1-0.002-0.134-0.015h-0.082c-0.035,0-0.067-0.002-0.098-0.006
		c-0.031-0.003-0.064-0.008-0.098-0.015c-0.097-0.028-0.186-0.053-0.268-0.077c-0.083-0.024-0.162-0.054-0.238-0.088
		c-0.248-0.13-0.448-0.297-0.599-0.501c-0.151-0.202-0.274-0.448-0.371-0.737c-0.021-0.062-0.038-0.126-0.051-0.191
		c-0.014-0.066-0.028-0.136-0.042-0.212c-0.013-0.069-0.02-0.124-0.02-0.165c-0.014-0.034-0.019-0.069-0.016-0.103
		c0.003-0.034-0.002-0.069-0.015-0.103v-0.092c-0.007-0.028-0.009-0.055-0.005-0.083c0.003-0.027,0.005-0.055,0.005-0.082
		c0-0.055-0.002-0.112-0.005-0.17c-0.003-0.058,0.002-0.115,0.015-0.17c0.014-0.049,0.019-0.095,0.016-0.139
		c-0.004-0.045,0.002-0.088,0.015-0.129c0.007-0.048,0.013-0.093,0.021-0.134c0.007-0.041,0.013-0.086,0.02-0.134
		c0.035-0.097,0.066-0.19,0.093-0.279c0.027-0.09,0.058-0.176,0.092-0.258c0.193-0.461,0.523-0.791,0.991-0.991
		c0.048-0.021,0.095-0.036,0.139-0.046c0.045-0.011,0.094-0.023,0.15-0.036c0.131-0.034,0.284-0.052,0.459-0.052
		c0.176,0,0.322,0.021,0.439,0.062c0.179,0.055,0.341,0.128,0.485,0.217c0.213,0.131,0.385,0.31,0.516,0.537
		c0.041,0.062,0.076,0.134,0.103,0.217c0.028,0.082,0.069,0.148,0.123,0.196c0.035,0.021,0.087,0.036,0.155,0.047
		c0.069,0.01,0.145,0.017,0.227,0.02c0.082,0.004,0.167,0.004,0.253,0c0.086-0.003,0.161-0.005,0.222-0.005
		c0.049,0,0.098,0.002,0.15,0.005c0.051,0.004,0.097-0.002,0.138-0.015h0.083c0.048-0.013,0.091-0.026,0.128-0.036
		c0.038-0.01,0.064-0.036,0.077-0.077c0.021-0.055,0.024-0.113,0.011-0.176c-0.014-0.062-0.028-0.117-0.041-0.165
		c-0.042-0.144-0.086-0.276-0.134-0.397c-0.049-0.12-0.11-0.238-0.185-0.356c-0.276-0.433-0.647-0.78-1.115-1.042
		c-0.469-0.261-1.063-0.385-1.786-0.371c-0.014,0.007-0.031,0.007-0.052,0c-0.02-0.007-0.038-0.007-0.051,0
		c-0.055,0.007-0.108,0.012-0.16,0.015c-0.051,0.003-0.105,0.009-0.16,0.016c-0.034,0.013-0.072,0.02-0.113,0.02
		c-0.041,0-0.083,0.007-0.124,0.021c-0.096,0.02-0.189,0.043-0.278,0.067c-0.09,0.024-0.176,0.053-0.259,0.087
		c-0.241,0.097-0.455,0.205-0.645,0.325c-0.189,0.121-0.37,0.267-0.542,0.438c-0.041,0.042-0.082,0.083-0.123,0.124
		c-0.041,0.041-0.08,0.086-0.113,0.134c-0.118,0.151-0.231,0.323-0.341,0.516c-0.048,0.076-0.092,0.159-0.129,0.248
		c-0.038,0.089-0.074,0.179-0.108,0.268c-0.034,0.083-0.061,0.17-0.082,0.264c-0.02,0.092-0.045,0.187-0.072,0.284
		c-0.013,0.055-0.024,0.108-0.031,0.16c-0.007,0.052-0.017,0.105-0.031,0.16c-0.007,0.061-0.012,0.123-0.015,0.186
		c-0.003,0.062-0.012,0.12-0.026,0.176v0.092c0,0.014,0.002,0.033,0.005,0.057c0.003,0.024,0.002,0.046-0.005,0.067
		c-0.013,0.034-0.02,0.086-0.02,0.155c0,0.069,0.007,0.12,0.02,0.155V43.616z"/>
	<path fill="#EE4529" d="M311.557,46.893c0.072,0.011,0.156,0.016,0.253,0.016h0.743h2.797h0.733c0.061,0,0.127,0,0.196,0
		c0.069,0,0.12-0.014,0.155-0.041c0.041-0.021,0.076-0.059,0.103-0.114c0.014-0.034,0.019-0.076,0.016-0.124
		c-0.004-0.048-0.006-0.1-0.006-0.155V46c0-0.068,0-0.134,0-0.196s-0.017-0.113-0.051-0.155c-0.021-0.028-0.064-0.049-0.129-0.062
		c-0.065-0.013-0.135-0.023-0.211-0.026c-0.077-0.003-0.155-0.003-0.238,0c-0.082,0.003-0.151,0.005-0.206,0.005h-2.002
		c-0.138,0-0.278,0-0.423,0c-0.145,0-0.24-0.044-0.289-0.134c-0.013-0.034-0.022-0.074-0.025-0.119
		c-0.004-0.045-0.005-0.091-0.005-0.139v-0.103c-0.014-0.048-0.019-0.097-0.016-0.15c0.003-0.051,0.005-0.105,0.005-0.16v-0.609
		v-3.127v-0.94c0-0.089,0-0.173,0-0.253c0-0.079-0.017-0.143-0.051-0.191c-0.034-0.048-0.088-0.074-0.16-0.077
		c-0.072-0.003-0.146-0.005-0.222-0.005h-0.877c-0.014,0.007-0.028,0.008-0.041,0.005c-0.014-0.003-0.028-0.002-0.042,0.005
		c-0.082,0.021-0.138,0.055-0.165,0.103c-0.021,0.034-0.033,0.082-0.036,0.144s-0.005,0.123-0.005,0.186v0.65v2.332v2.735v0.722
		c0,0.061,0,0.125,0,0.191c0,0.066,0.013,0.118,0.041,0.16C311.432,46.85,311.485,46.882,311.557,46.893z"/>
	<path fill="#EE4529" d="M307.411,49.881c-0.048-0.014-0.097-0.019-0.15-0.016c-0.051,0.003-0.105,0.005-0.16,0.005h-0.661
		c-0.076,0-0.145,0.006-0.207,0.016c-0.061,0.01-0.11,0.036-0.144,0.077c-0.041,0.056-0.06,0.141-0.056,0.258
		c0.003,0.118,0.005,0.223,0.005,0.32v1.383v2.053c0,0.261-0.007,0.514-0.021,0.758c-0.013,0.244-0.058,0.456-0.134,0.635
		c-0.055,0.117-0.129,0.222-0.223,0.315c-0.092,0.092-0.201,0.166-0.325,0.222c-0.055,0.028-0.13,0.051-0.227,0.072
		c-0.048,0.013-0.1,0.024-0.154,0.031c-0.056,0.007-0.11,0.017-0.166,0.031h-0.155c-0.021,0.007-0.062,0.012-0.124,0.015
		c-0.061,0.003-0.107,0.002-0.134-0.005c-0.035-0.007-0.065-0.008-0.093-0.005c-0.028,0.003-0.059-0.002-0.093-0.016
		c-0.055-0.013-0.11-0.023-0.165-0.031c-0.055-0.007-0.11-0.017-0.165-0.03c-0.2-0.069-0.359-0.162-0.48-0.279
		c-0.121-0.117-0.218-0.265-0.294-0.444c-0.028-0.076-0.047-0.151-0.057-0.227c-0.01-0.076-0.023-0.151-0.036-0.227
		c-0.007-0.028-0.01-0.066-0.01-0.113c-0.014-0.056-0.019-0.118-0.016-0.186c0.003-0.068,0.005-0.134,0.005-0.196v-0.165
		c-0.007-0.027-0.008-0.056-0.005-0.087c0.003-0.031,0.005-0.061,0.005-0.088v-0.361V51.47v-1.042c0-0.089-0.002-0.177-0.005-0.263
		c-0.003-0.087-0.022-0.157-0.056-0.212c-0.034-0.041-0.088-0.066-0.16-0.072c-0.072-0.007-0.146-0.011-0.222-0.011h-0.877
		c-0.014,0.008-0.028,0.011-0.042,0.011c-0.013,0-0.027,0-0.041,0c-0.069,0.02-0.123,0.055-0.165,0.103
		c-0.021,0.041-0.031,0.094-0.031,0.16c0,0.066,0,0.133,0,0.202v0.722v2.879c0,0.241,0,0.482,0,0.722
		c0,0.241,0.027,0.458,0.082,0.65c0.013,0.035,0.021,0.064,0.021,0.088s0.007,0.053,0.02,0.087c0.048,0.159,0.102,0.305,0.161,0.439
		c0.058,0.134,0.132,0.263,0.222,0.386c0.261,0.379,0.622,0.653,1.083,0.821c0.461,0.169,1.018,0.249,1.672,0.243
		c0.096,0,0.196-0.003,0.299-0.01c0.103-0.008,0.196-0.018,0.279-0.031c0.041-0.014,0.081-0.021,0.118-0.021s0.077-0.007,0.119-0.02
		c0.061-0.014,0.125-0.028,0.191-0.041c0.066-0.014,0.128-0.031,0.191-0.052c0.289-0.096,0.54-0.22,0.753-0.371
		c0.241-0.165,0.435-0.366,0.583-0.604c0.149-0.238,0.271-0.517,0.367-0.842c0.055-0.199,0.086-0.422,0.093-0.67
		c0.007-0.248,0.011-0.502,0.011-0.764v-2.084V50.49c0-0.083,0.001-0.174,0.005-0.274c0.003-0.1-0.013-0.177-0.047-0.232
		C307.57,49.935,307.508,49.901,307.411,49.881z"/>
	<path fill="#EE4529" d="M310.877,56.821c-0.003,0.114,0.005,0.198,0.025,0.253c0.035,0.083,0.091,0.129,0.171,0.139
		c0.079,0.011,0.177,0.016,0.294,0.016h3.014c0.034,0,0.066,0.002,0.098,0.005c0.031,0.003,0.061,0.002,0.088-0.005
		c0.035-0.014,0.067-0.018,0.097-0.011c0.031,0.008,0.06,0.008,0.088,0c0.034-0.007,0.067-0.01,0.098-0.01s0.063-0.003,0.097-0.01
		c0.076-0.013,0.155-0.026,0.238-0.036c0.082-0.01,0.161-0.029,0.238-0.057c0.151-0.048,0.294-0.102,0.428-0.16
		c0.133-0.059,0.259-0.129,0.376-0.212c0.302-0.22,0.527-0.502,0.671-0.847c0.02-0.055,0.038-0.113,0.051-0.175
		c0.014-0.061,0.028-0.127,0.041-0.196c0.014-0.069,0.026-0.165,0.036-0.289c0.011-0.124,0.009-0.223-0.005-0.3v-0.113
		c-0.013-0.055-0.024-0.112-0.031-0.17c-0.007-0.059-0.02-0.116-0.041-0.17c-0.061-0.213-0.148-0.399-0.258-0.558
		c-0.117-0.165-0.268-0.309-0.454-0.433c-0.055-0.034-0.12-0.071-0.196-0.108c-0.076-0.038-0.121-0.084-0.134-0.139
		c-0.013-0.034-0.012-0.063,0.005-0.087c0.018-0.024,0.033-0.043,0.047-0.057c0.041-0.055,0.089-0.099,0.145-0.134
		c0.055-0.034,0.107-0.076,0.154-0.123c0.145-0.158,0.261-0.361,0.351-0.609c0.013-0.034,0.022-0.071,0.025-0.108
		c0.004-0.038,0.013-0.081,0.026-0.129c0-0.013,0.002-0.034,0.005-0.061c0.003-0.028,0.005-0.052,0.005-0.072v-0.093
		c0.007-0.013,0.012-0.036,0.016-0.067c0.003-0.031,0.002-0.056-0.005-0.077c-0.007-0.028-0.009-0.055-0.005-0.082
		c0.003-0.028,0.002-0.055-0.006-0.083c-0.013-0.055-0.022-0.106-0.025-0.155c-0.003-0.048-0.013-0.097-0.026-0.144
		c-0.055-0.186-0.128-0.351-0.216-0.496c-0.09-0.144-0.203-0.265-0.341-0.361c-0.096-0.069-0.202-0.125-0.319-0.17
		c-0.118-0.045-0.241-0.091-0.372-0.139c-0.055-0.014-0.108-0.024-0.16-0.031c-0.052-0.007-0.105-0.018-0.16-0.031
		c-0.048-0.014-0.094-0.019-0.139-0.016c-0.045,0.004-0.087-0.002-0.129-0.015h-0.062c-0.034-0.007-0.069-0.007-0.103,0
		c-0.034,0.007-0.069,0.003-0.103-0.01c-0.041-0.007-0.086-0.009-0.134-0.005c-0.049,0.003-0.096,0.005-0.144,0.005h-3.076
		c-0.014,0.007-0.028,0.008-0.041,0.005c-0.014-0.003-0.028-0.002-0.042,0.005c-0.076,0.021-0.127,0.055-0.155,0.103
		c-0.035,0.055-0.05,0.129-0.046,0.222s0.005,0.181,0.005,0.263v6.058C310.882,56.613,310.88,56.707,310.877,56.821z M315.33,54.535
		c0.028,0.055,0.053,0.138,0.077,0.247c0.024,0.111,0.029,0.213,0.016,0.31v0.062c-0.021,0.076-0.042,0.15-0.062,0.222
		c-0.021,0.072-0.049,0.136-0.082,0.191c-0.083,0.124-0.192,0.215-0.325,0.274c-0.134,0.059-0.288,0.1-0.459,0.124
		c-0.172,0.024-0.355,0.035-0.548,0.031c-0.192-0.003-0.392-0.005-0.598-0.005c-0.062,0-0.134,0.002-0.217,0.005
		c-0.083,0.004-0.164,0.004-0.243,0c-0.079-0.003-0.15-0.013-0.212-0.031c-0.062-0.017-0.107-0.043-0.134-0.077
		c-0.035-0.048-0.053-0.115-0.056-0.201c-0.004-0.086-0.005-0.17-0.005-0.253v-0.919c0-0.076,0-0.156,0-0.243
		c0-0.086,0.017-0.156,0.051-0.212c0.028-0.048,0.082-0.082,0.165-0.103c0.013,0,0.025,0.003,0.036,0.006
		c0.01,0.003,0.022-0.002,0.036-0.016h1.166c0.151,0,0.297,0.003,0.438,0.01c0.141,0.008,0.271,0.028,0.387,0.062
		C315.044,54.115,315.233,54.288,315.33,54.535z M312.482,52.192v-0.557c0-0.076,0-0.15,0-0.223s0.017-0.132,0.051-0.181
		c0.028-0.041,0.076-0.072,0.144-0.092c0.013-0.007,0.03-0.01,0.046-0.01c0.018,0,0.033-0.004,0.047-0.011h0.877
		c0.096,0,0.197-0.002,0.305-0.005c0.107-0.003,0.201,0.005,0.284,0.026c0.055,0,0.096,0.003,0.123,0.01
		c0.055,0.014,0.107,0.026,0.155,0.036c0.049,0.01,0.093,0.023,0.134,0.036c0.158,0.076,0.279,0.18,0.361,0.315
		c0.083,0.134,0.117,0.318,0.103,0.552c-0.014,0.144-0.045,0.262-0.093,0.351c-0.102,0.172-0.258,0.292-0.465,0.361
		c-0.076,0.028-0.165,0.046-0.268,0.057c-0.103,0.01-0.212,0.015-0.325,0.015c-0.113,0-0.227-0.002-0.341-0.005
		c-0.113-0.003-0.222-0.005-0.325-0.005c-0.061,0-0.13,0.002-0.206,0.005c-0.076,0.003-0.15,0.003-0.223,0
		c-0.072-0.003-0.138-0.012-0.196-0.026c-0.059-0.013-0.102-0.038-0.129-0.072c-0.013-0.027-0.024-0.056-0.031-0.087
		c-0.007-0.031-0.017-0.067-0.03-0.108v-0.103c-0.008-0.034-0.009-0.077-0.006-0.129C312.479,52.29,312.482,52.241,312.482,52.192z"
		/>
	<path fill="#EE4529" d="M309.068,64.54c8.909,0,16.157-7.249,16.157-16.158s-7.248-16.157-16.157-16.157
		c-8.909,0-16.157,7.248-16.157,16.157S300.158,64.54,309.068,64.54z M309.068,33.992c7.934,0,14.39,6.455,14.39,14.39
		c0,7.935-6.455,14.39-14.39,14.39c-7.934,0-14.389-6.455-14.389-14.39C294.678,40.447,301.133,33.992,309.068,33.992z"/>
</g>
<g>
</g>
<g>
</g>
<g>
</g>
<g>
</g>
<g>
</g>
<g>
</g>
</svg>
